<svg width="1211" height="741" viewBox="0 0 1211 741" fill="none" xmlns="http://www.w3.org/2000/svg">
<line x1="604.105" y1="336.914" x2="604.105" y2="241.403" stroke="black" stroke-opacity="0.8" stroke-width="3"/>
<line x1="604.105" y1="645.489" x2="604.105" y2="432.425" stroke="black" stroke-opacity="0.8" stroke-width="3"/>
<line x1="108.705" y1="645.489" x2="108.705" y2="600.357" stroke="black" stroke-opacity="0.8" stroke-width="3"/>
<line x1="850.756" y1="645.489" x2="850.756" y2="600.357" stroke="black" stroke-opacity="0.8" stroke-width="3"/>
<line x1="357.455" y1="645.489" x2="357.455" y2="600.357" stroke="black" stroke-opacity="0.8" stroke-width="3"/>
<rect x="494.284" y="118.602" width="221.701" height="122.662" rx="10" fill="#98BDDF" fill-opacity="0.7"/>
<path d="M539.803 144.677V167.827H542.953V144.677H539.803ZM536.703 153.577V156.252H540.553V153.577H536.703ZM534.628 145.077V166.727H537.703V145.077H534.628ZM523.728 159.877V162.602H525.353C528.328 162.602 530.778 162.527 533.578 161.977L533.328 159.277C530.578 159.777 528.203 159.877 525.353 159.877H523.728ZM523.728 147.352V161.177H527.028V150.027H532.278V147.352H523.728ZM551.226 157.277V163.502H554.551V157.277H551.226ZM558.501 157.302V163.527H561.801V157.302H558.501ZM546.101 162.602V165.302H567.051V162.602H546.101ZM547.701 146.502V149.152H565.326V146.502H547.701ZM547.801 155.652V158.277H565.251V155.652H547.801ZM550.851 148.702V156.027H554.176V148.702H550.851ZM558.876 148.702V156.027H562.176V148.702H558.876ZM584.949 144.652V167.877H588.299V144.652H584.949ZM575.824 146.277C572.324 146.277 569.749 149.477 569.749 154.527C569.749 159.627 572.324 162.827 575.824 162.827C579.324 162.827 581.899 159.627 581.899 154.527C581.899 149.477 579.324 146.277 575.824 146.277ZM575.824 149.302C577.549 149.302 578.699 151.127 578.699 154.527C578.699 157.977 577.549 159.827 575.824 159.827C574.099 159.827 572.924 157.977 572.924 154.527C572.924 151.127 574.099 149.302 575.824 149.302ZM597.272 146.452V149.827C597.272 154.127 595.497 158.577 591.597 160.402L593.597 163.077C597.972 160.927 599.972 155.552 599.972 149.827V146.452H597.272ZM597.947 146.452V149.827C597.947 155.377 599.772 160.527 603.947 162.652L605.947 160.002C602.247 158.202 600.597 153.977 600.597 149.827V146.452H597.947ZM606.872 144.677V167.827H610.222V144.677H606.872ZM609.472 153.577V156.352H613.572V153.577H609.472ZM616.414 156.511C616.414 154.309 616.707 152.282 617.293 150.43C617.885 148.577 618.787 146.861 620.001 145.281H623.614C623.152 145.867 622.723 146.583 622.327 147.429C621.93 148.27 621.584 149.193 621.288 150.199C620.992 151.205 620.761 152.247 620.595 153.324C620.43 154.395 620.347 155.458 620.347 156.511C620.347 157.914 620.489 159.331 620.773 160.764C621.063 162.19 621.454 163.516 621.945 164.741C622.442 165.966 622.998 166.969 623.614 167.75H620.001C618.787 166.17 617.885 164.454 617.293 162.601C616.707 160.749 616.414 158.719 616.414 156.511ZM641.922 153.786H638.034C637.963 153.283 637.818 152.836 637.599 152.445C637.38 152.049 637.099 151.711 636.755 151.433C636.412 151.155 636.016 150.942 635.566 150.794C635.122 150.646 634.639 150.572 634.119 150.572C633.178 150.572 632.358 150.806 631.659 151.273C630.961 151.735 630.42 152.41 630.035 153.297C629.65 154.179 629.458 155.25 629.458 156.511C629.458 157.807 629.65 158.896 630.035 159.778C630.425 160.66 630.97 161.326 631.668 161.776C632.367 162.226 633.175 162.45 634.092 162.45C634.607 162.45 635.083 162.382 635.521 162.246C635.965 162.11 636.359 161.912 636.702 161.651C637.045 161.385 637.329 161.063 637.554 160.684C637.785 160.305 637.945 159.873 638.034 159.388L641.922 159.405C641.822 160.24 641.57 161.045 641.168 161.82C640.771 162.59 640.235 163.279 639.561 163.889C638.892 164.492 638.093 164.972 637.164 165.327C636.24 165.676 635.196 165.851 634.03 165.851C632.408 165.851 630.958 165.484 629.68 164.75C628.407 164.016 627.401 162.953 626.661 161.563C625.927 160.172 625.56 158.488 625.56 156.511C625.56 154.528 625.933 152.842 626.679 151.451C627.425 150.06 628.437 149 629.715 148.273C630.994 147.539 632.432 147.172 634.03 147.172C635.083 147.172 636.06 147.32 636.96 147.616C637.865 147.911 638.667 148.344 639.365 148.912C640.064 149.474 640.632 150.163 641.07 150.98C641.514 151.797 641.798 152.732 641.922 153.786ZM644.679 165.602V147.42H656.93V150.59H648.523V154.922H656.3V158.091H648.523V162.433H656.966V165.602H644.679ZM676.695 156.511C676.695 158.494 676.319 160.181 675.567 161.572C674.821 162.962 673.803 164.025 672.513 164.759C671.229 165.487 669.785 165.851 668.181 165.851C666.565 165.851 665.115 165.484 663.831 164.75C662.546 164.016 661.531 162.953 660.785 161.563C660.04 160.172 659.667 158.488 659.667 156.511C659.667 154.528 660.04 152.842 660.785 151.451C661.531 150.06 662.546 149 663.831 148.273C665.115 147.539 666.565 147.172 668.181 147.172C669.785 147.172 671.229 147.539 672.513 148.273C673.803 149 674.821 150.06 675.567 151.451C676.319 152.842 676.695 154.528 676.695 156.511ZM672.797 156.511C672.797 155.227 672.605 154.144 672.22 153.262C671.841 152.38 671.306 151.711 670.613 151.255C669.921 150.8 669.11 150.572 668.181 150.572C667.251 150.572 666.441 150.8 665.748 151.255C665.056 151.711 664.517 152.38 664.132 153.262C663.754 154.144 663.564 155.227 663.564 156.511C663.564 157.795 663.754 158.879 664.132 159.76C664.517 160.642 665.056 161.311 665.748 161.767C666.441 162.223 667.251 162.45 668.181 162.45C669.11 162.45 669.921 162.223 670.613 161.767C671.306 161.311 671.841 160.642 672.22 159.76C672.605 158.879 672.797 157.795 672.797 156.511ZM685.845 156.511C685.845 158.719 685.549 160.749 684.958 162.601C684.372 164.454 683.472 166.17 682.259 167.75H678.645C679.107 167.165 679.536 166.448 679.933 165.602C680.329 164.756 680.675 163.832 680.971 162.832C681.267 161.826 681.498 160.784 681.664 159.707C681.83 158.63 681.912 157.565 681.912 156.511C681.912 155.108 681.767 153.694 681.477 152.268C681.193 150.835 680.803 149.509 680.306 148.29C679.814 147.065 679.261 146.062 678.645 145.281H682.259C683.472 146.861 684.372 148.577 684.958 150.43C685.549 152.282 685.845 154.309 685.845 156.511ZM579.768 205.92V210.313H582.85V205.92H579.768ZM579.745 198.33V198.813C579.745 201.09 578.25 203.321 574.846 204.218L576.226 206.564C580.274 205.483 582.183 202.378 582.183 198.813V198.33H579.745ZM580.389 198.33V198.813C580.389 202.286 582.367 205.345 586.415 206.38L587.772 204.034C584.391 203.16 582.85 200.998 582.85 198.813V198.33H580.389ZM575.49 196.858V199.273H587.151V196.858H575.49ZM579.768 194.535V197.916H582.85V194.535H579.768ZM589.037 194.328V215.695H592.096V194.328H589.037ZM574.777 211.739C578.457 211.716 583.471 211.67 588.094 210.773L587.864 208.542C583.379 209.209 578.135 209.255 574.409 209.255L574.777 211.739ZM605.734 197.456V199.871H610.909V197.456H605.734ZM605.734 201.803V204.264H610.909V201.803H605.734ZM596.373 195.639V205.874H606.447V195.639H603.457V198.468H599.409V195.639H596.373ZM599.409 200.837H603.457V203.482H599.409V200.837ZM610.242 194.351V207.07H613.301V194.351H610.242ZM606.079 207.438C601.571 207.438 598.788 208.979 598.788 211.555C598.788 214.154 601.571 215.649 606.079 215.649C610.587 215.649 613.37 214.154 613.37 211.555C613.37 208.979 610.587 207.438 606.079 207.438ZM606.079 209.784C608.862 209.784 610.334 210.336 610.334 211.555C610.334 212.751 608.862 213.326 606.079 213.326C603.319 213.326 601.847 212.751 601.847 211.555C601.847 210.336 603.319 209.784 606.079 209.784ZM627.513 198.882V201.343H632.458V198.882H627.513ZM621.51 195.662V197.962C621.51 200.975 620.038 203.919 616.519 205.092L618.129 207.484C622.154 206.012 623.971 202.309 623.971 197.962V195.662H621.51ZM622.177 195.662V197.985C622.177 202.01 623.925 205.575 627.743 206.955L629.376 204.609C626.018 203.459 624.615 200.722 624.615 197.985V195.662H622.177ZM631.4 194.374V210.083H634.459V194.374H631.4ZM620.36 212.843V215.281H634.919V212.843H620.36ZM620.36 208.496V214.2H623.442V208.496H620.36Z" fill="black"/>
<rect x="494.284" y="336.668" width="221.701" height="95.4041" rx="10" fill="#D9D9D9" fill-opacity="0.7"/>
<path d="M543.444 376.393V379.043H548.869V376.393H543.444ZM543.269 381.193V383.843H548.694V381.193H543.269ZM548.344 372.743V386.068H551.669V372.743H548.344ZM540.794 374.318V375.918C540.794 379.543 538.344 382.443 532.469 383.968L533.769 386.593C540.794 384.668 544.344 380.618 544.344 374.318H540.794ZM533.744 374.318V376.968H543.119V374.318H533.744ZM543.994 386.368C539.294 386.368 536.169 388.168 536.169 391.068C536.169 393.968 539.294 395.793 543.994 395.793C548.694 395.793 551.819 393.968 551.819 391.068C551.819 388.168 548.694 386.368 543.994 386.368ZM543.994 388.918C546.844 388.918 548.544 389.643 548.544 391.068C548.544 392.493 546.844 393.193 543.994 393.193C541.169 393.193 539.469 392.493 539.469 391.068C539.469 389.643 541.169 388.918 543.994 388.918ZM565.542 375.768V378.418H572.392V375.768H565.542ZM565.542 380.893V383.568H572.392V380.893H565.542ZM561.692 373.968C558.217 373.968 555.567 376.368 555.567 379.643C555.567 382.918 558.217 385.318 561.692 385.318C565.142 385.318 567.792 382.918 567.792 379.643C567.792 376.368 565.142 373.968 561.692 373.968ZM561.692 376.793C563.392 376.793 564.642 377.818 564.642 379.643C564.642 381.443 563.392 382.518 561.692 382.518C559.992 382.518 558.742 381.443 558.742 379.643C558.742 377.818 559.992 376.793 561.692 376.793ZM571.342 372.743V386.293H574.667V372.743H571.342ZM566.817 386.768C561.942 386.768 558.892 388.468 558.892 391.343C558.892 394.218 561.942 395.893 566.817 395.893C571.692 395.893 574.742 394.218 574.742 391.343C574.742 388.468 571.692 386.768 566.817 386.768ZM566.817 389.343C569.867 389.343 571.467 389.993 571.467 391.343C571.467 392.693 569.867 393.343 566.817 393.343C563.792 393.343 562.167 392.693 562.167 391.343C562.167 389.993 563.792 389.343 566.817 389.343ZM594.24 372.743V395.893H597.59V372.743H594.24ZM587.415 375.143V375.743C587.415 381.943 585.015 386.143 578.365 389.343L580.09 391.993C588.315 388.018 590.715 382.218 590.715 375.143H587.415ZM579.59 375.143V377.768H588.99V375.143H579.59ZM602.063 374.443V376.818H615.663V374.443H602.063ZM608.863 377.368C605.413 377.368 603.113 378.743 603.113 380.843C603.113 382.968 605.413 384.318 608.863 384.318C612.313 384.318 614.613 382.968 614.613 380.843C614.613 378.743 612.313 377.368 608.863 377.368ZM608.863 379.568C610.438 379.568 611.438 379.993 611.438 380.843C611.438 381.668 610.438 382.118 608.863 382.118C607.313 382.118 606.288 381.668 606.288 380.843C606.288 379.993 607.313 379.568 608.863 379.568ZM607.188 372.593V375.643H610.538V372.593H607.188ZM607.188 383.093V386.318H610.538V383.093H607.188ZM617.238 372.768V388.443H620.588V372.768H617.238ZM604.588 389.343V391.893H617.238V395.893H620.588V389.343H604.588ZM601.813 387.993C605.888 387.993 611.213 387.918 616.113 387.068L615.863 384.843C611.138 385.443 605.588 385.468 601.413 385.468L601.813 387.993ZM640.187 372.743V384.443H643.537V372.743H640.187ZM628.087 385.468V387.993H640.237V389.343H628.137V394.068H631.387V391.743H643.537V385.468H628.087ZM628.137 393.168V395.743H644.112V393.168H628.137ZM629.712 373.268V375.018C629.712 377.843 628.062 380.743 624.187 381.918L625.787 384.543C630.312 383.168 632.462 379.293 632.462 375.018V373.268H629.712ZM630.387 373.268V375.018C630.387 379.193 632.462 382.818 636.912 384.118L638.512 381.543C634.737 380.468 633.112 377.768 633.112 375.018V373.268H630.387ZM648.628 384.578C648.628 382.376 648.921 380.349 649.507 378.496C650.099 376.644 651.002 374.927 652.215 373.347H655.828C655.367 373.933 654.938 374.649 654.541 375.496C654.144 376.336 653.798 377.259 653.502 378.265C653.206 379.272 652.976 380.313 652.81 381.39C652.644 382.462 652.561 383.524 652.561 384.578C652.561 385.98 652.703 387.398 652.987 388.83C653.277 390.256 653.668 391.582 654.159 392.807C654.656 394.032 655.213 395.036 655.828 395.817H652.215C651.002 394.237 650.099 392.52 649.507 390.668C648.921 388.815 648.628 386.785 648.628 384.578ZM665.898 375.487V393.668H662.054V379.135H661.947L657.784 381.746V378.336L662.285 375.487H665.898ZM676.629 384.578C676.629 386.785 676.333 388.815 675.741 390.668C675.155 392.52 674.256 394.237 673.042 395.817H669.429C669.891 395.231 670.32 394.515 670.716 393.668C671.113 392.822 671.459 391.899 671.755 390.899C672.051 389.892 672.282 388.851 672.448 387.774C672.613 386.696 672.696 385.631 672.696 384.578C672.696 383.175 672.551 381.76 672.261 380.334C671.977 378.902 671.586 377.576 671.089 376.357C670.598 375.132 670.045 374.128 669.429 373.347H673.042C674.256 374.927 675.155 376.644 675.741 378.496C676.333 380.349 676.629 382.376 676.629 384.578Z" fill="black"/>
<rect x="772.319" y="241.265" width="221.701" height="95.4041" rx="10" fill="#D9D9D9" fill-opacity="0.7"/>
<path d="M859.726 277.34V290.24H863.051V277.34H859.726ZM862.126 282.365V285.09H866.126V282.365H862.126ZM853.076 278.665V280.315C853.076 283.79 850.251 286.74 844.576 288.165L845.876 290.79C852.776 288.99 856.626 284.815 856.626 278.665H853.076ZM845.676 278.665V281.29H855.076V278.665H845.676ZM848.026 291.165V300.24H863.051V291.165H848.026ZM859.776 293.79V297.615H851.301V293.79H859.776ZM873.024 279.115V282.49C873.024 286.79 871.249 291.24 867.349 293.065L869.349 295.74C873.724 293.59 875.724 288.215 875.724 282.49V279.115H873.024ZM873.699 279.115V282.49C873.699 288.04 875.524 293.19 879.699 295.315L881.699 292.665C877.999 290.865 876.349 286.64 876.349 282.49V279.115H873.699ZM882.624 277.34V300.49H885.974V277.34H882.624ZM885.224 286.24V289.015H889.324V286.24H885.224ZM892.166 289.174C892.166 286.972 892.459 284.945 893.045 283.092C893.637 281.24 894.539 279.524 895.753 277.943H899.366C898.904 278.529 898.475 279.245 898.079 280.092C897.682 280.932 897.336 281.855 897.04 282.862C896.744 283.868 896.513 284.909 896.347 285.987C896.182 287.058 896.099 288.12 896.099 289.174C896.099 290.576 896.241 291.994 896.525 293.426C896.815 294.853 897.206 296.178 897.697 297.403C898.194 298.629 898.75 299.632 899.366 300.413H895.753C894.539 298.833 893.637 297.116 893.045 295.264C892.459 293.411 892.166 291.381 892.166 289.174ZM909.436 280.083V298.265H905.591V283.732H905.485L901.321 286.342V282.933L905.822 280.083H909.436ZM920.167 289.174C920.167 291.381 919.871 293.411 919.279 295.264C918.693 297.116 917.793 298.833 916.58 300.413H912.967C913.428 299.827 913.857 299.111 914.254 298.265C914.651 297.418 914.997 296.495 915.293 295.495C915.589 294.489 915.819 293.447 915.985 292.37C916.151 291.293 916.234 290.227 916.234 289.174C916.234 287.771 916.089 286.357 915.799 284.93C915.515 283.498 915.124 282.172 914.627 280.953C914.136 279.728 913.582 278.725 912.967 277.943H916.58C917.793 279.524 918.693 281.24 919.279 283.092C919.871 284.945 920.167 286.972 920.167 289.174Z" fill="black"/>
<path d="M1037.16 55.8636C1037.16 54.0739 1037.39 52.4285 1037.85 50.9276C1038.32 49.4219 1038.99 48.0369 1039.86 46.7727H1041.34C1040.99 47.2415 1040.67 47.8191 1040.38 48.5057C1040.08 49.1875 1039.82 49.938 1039.6 50.7571C1039.38 51.5715 1039.2 52.4143 1039.08 53.2855C1038.95 54.1567 1038.89 55.0161 1038.89 55.8636C1038.89 56.9905 1039 58.134 1039.22 59.294C1039.44 60.4541 1039.73 61.5312 1040.1 62.5256C1040.47 63.5199 1040.88 64.3295 1041.34 64.9545H1039.86C1038.99 63.6903 1038.32 62.3078 1037.85 60.8068C1037.39 59.3011 1037.16 57.6534 1037.16 55.8636ZM1053.01 55.8636C1053.01 57.6534 1052.78 59.3011 1052.31 60.8068C1051.85 62.3078 1051.18 63.6903 1050.31 64.9545H1048.84C1049.18 64.4858 1049.49 63.9081 1049.79 63.2216C1050.09 62.5398 1050.35 61.7917 1050.57 60.9773C1050.79 60.1581 1050.97 59.313 1051.09 58.4418C1051.22 57.5658 1051.28 56.7064 1051.28 55.8636C1051.28 54.7367 1051.17 53.5933 1050.95 52.4332C1050.74 51.2732 1050.44 50.196 1050.07 49.2017C1049.7 48.2074 1049.29 47.3977 1048.84 46.7727H1050.31C1051.18 48.0369 1051.85 49.4219 1052.31 50.9276C1052.78 52.4285 1053.01 54.0739 1053.01 55.8636ZM1063.53 62.1136C1063.18 62.1136 1062.88 61.9882 1062.62 61.7372C1062.37 61.4863 1062.25 61.1856 1062.25 60.8352C1062.25 60.4848 1062.37 60.1842 1062.62 59.9332C1062.88 59.6823 1063.18 59.5568 1063.53 59.5568C1063.88 59.5568 1064.18 59.6823 1064.43 59.9332C1064.68 60.1842 1064.8 60.4848 1064.8 60.8352C1064.8 61.0672 1064.75 61.2803 1064.63 61.4744C1064.51 61.6686 1064.36 61.8248 1064.17 61.9432C1063.98 62.0568 1063.76 62.1136 1063.53 62.1136ZM1063.53 54.017C1063.18 54.017 1062.88 53.8916 1062.62 53.6406C1062.37 53.3897 1062.25 53.089 1062.25 52.7386C1062.25 52.3883 1062.37 52.0876 1062.62 51.8366C1062.88 51.5857 1063.18 51.4602 1063.53 51.4602C1063.88 51.4602 1064.18 51.5857 1064.43 51.8366C1064.68 52.0876 1064.8 52.3883 1064.8 52.7386C1064.8 52.9706 1064.75 53.1837 1064.63 53.3778C1064.51 53.572 1064.36 53.7282 1064.17 53.8466C1063.98 53.9602 1063.76 54.017 1063.53 54.017ZM1086.04 45.5V58.7H1087.72V45.5H1086.04ZM1076.1 61.8V63.16H1088.26V61.8H1076.1ZM1076.1 57.34V62.26H1077.74V57.34H1076.1ZM1078.02 46.74C1075.32 46.74 1073.3 48.58 1073.3 51.2C1073.3 53.8 1075.32 55.66 1078.02 55.66C1080.72 55.66 1082.72 53.8 1082.72 51.2C1082.72 48.58 1080.72 46.74 1078.02 46.74ZM1078.02 48.18C1079.78 48.18 1081.12 49.42 1081.12 51.2C1081.12 52.96 1079.78 54.2 1078.02 54.2C1076.26 54.2 1074.92 52.96 1074.92 51.2C1074.92 49.42 1076.26 48.18 1078.02 48.18ZM1096.42 54.58V58.6H1098.08V54.58H1096.42ZM1104.44 45.48V59.24H1106.1V45.48H1104.44ZM1093.76 61.8V63.16H1106.54V61.8H1093.76ZM1093.76 57.9V62.18H1095.42V57.9H1093.76ZM1091.42 55.2C1094.7 55.2 1099.08 55.14 1102.98 54.52L1102.86 53.3C1099.02 53.8 1094.54 53.84 1091.2 53.84L1091.42 55.2ZM1100.76 56.16V57.38H1104.86V56.16H1100.76ZM1097.08 46.22C1094.42 46.22 1092.62 47.46 1092.62 49.36C1092.62 51.28 1094.42 52.52 1097.08 52.52C1099.72 52.52 1101.52 51.28 1101.52 49.36C1101.52 47.46 1099.72 46.22 1097.08 46.22ZM1097.08 47.46C1098.76 47.46 1099.94 48.2 1099.94 49.36C1099.94 50.52 1098.76 51.26 1097.08 51.26C1095.38 51.26 1094.2 50.52 1094.2 49.36C1094.2 48.2 1095.38 47.46 1097.08 47.46ZM1117 46.12V47.12C1117 49.7 1113.82 51.86 1110.52 52.36L1111.18 53.7C1114.94 53.06 1118.46 50.58 1118.46 47.12V46.12H1117ZM1117.3 46.12V47.12C1117.3 50.54 1120.84 53.06 1124.56 53.7L1125.22 52.36C1121.96 51.86 1118.74 49.64 1118.74 47.12V46.12H1117.3ZM1117 56.68V63.56H1118.64V56.68H1117ZM1109.7 55.66V57.04H1126.04V55.66H1109.7Z" fill="black"/>
<rect x="136.292" y="454.787" width="221.701" height="95.4041" rx="10" fill="#D9D9D9" fill-opacity="0.7"/>
<path d="M188.494 490.862V514.012H191.844V490.862H188.494ZM181.669 493.262V493.862C181.669 500.062 179.269 504.262 172.619 507.462L174.344 510.112C182.569 506.137 184.969 500.337 184.969 493.262H181.669ZM173.844 493.262V495.887H183.244V493.262H173.844ZM204.317 490.987V491.412C204.317 493.662 201.792 495.962 196.567 496.487L197.667 498.987C203.642 498.337 207.117 495.287 207.117 491.412V490.987H204.317ZM204.892 490.987V491.412C204.892 495.287 208.367 498.337 214.342 498.987L215.442 496.487C210.242 495.962 207.717 493.662 207.717 491.412V490.987H204.892ZM204.317 501.962V505.187H207.642V501.962H204.317ZM195.542 499.937V502.537H216.467V499.937H195.542ZM197.942 504.037V506.512H210.667V507.737H197.967V512.037H201.242V510.037H213.942V504.037H197.942ZM197.967 511.362V513.862H214.542V511.362H197.967ZM235.19 490.862V514.012H238.365V490.862H235.19ZM232.265 499.587V502.237H236.09V499.587H232.265ZM225.365 493.687V494.387C225.365 499.937 223.515 503.837 218.24 506.962L220.165 509.262C226.64 505.487 228.54 500.212 228.54 493.687H225.365ZM219.415 493.687V496.362H226.34V493.687H219.415ZM230.065 491.462V513.012H233.165V491.462H230.065ZM242.213 491.887V502.012H253.338V491.887H250.038V494.612H245.513V491.887H242.213ZM245.513 497.112H250.038V499.412H245.513V497.112ZM256.438 490.862V502.612H259.763V490.862H256.438ZM258.413 495.312V498.012H262.813V495.312H258.413ZM244.463 503.512V506.062H256.488V507.437H244.513V512.562H247.813V509.812H259.763V503.512H244.463ZM244.513 511.287V513.862H260.438V511.287H244.513ZM265.811 500.962V503.562H267.786C272.661 503.562 275.586 503.512 278.836 502.962L278.511 500.387C275.336 500.912 272.561 500.962 267.786 500.962H265.811ZM265.811 492.187V502.037H269.111V494.812H276.936V492.187H265.811ZM268.086 496.562V499.137H276.261V496.562H268.086ZM280.436 490.887V504.612H283.786V490.887H280.436ZM268.386 505.562V513.762H283.786V505.562H268.386ZM280.511 508.162V511.137H271.636V508.162H280.511ZM288.878 502.696C288.878 500.494 289.171 498.467 289.757 496.615C290.349 494.762 291.251 493.046 292.465 491.466H296.078C295.616 492.052 295.187 492.768 294.791 493.614C294.394 494.455 294.048 495.378 293.752 496.384C293.456 497.39 293.225 498.432 293.059 499.509C292.894 500.58 292.811 501.643 292.811 502.696C292.811 504.099 292.953 505.516 293.237 506.949C293.527 508.375 293.918 509.701 294.409 510.926C294.906 512.151 295.462 513.154 296.078 513.936H292.465C291.251 512.355 290.349 510.639 289.757 508.786C289.171 506.934 288.878 504.904 288.878 502.696ZM298.237 511.787V509.017L304.709 503.025C305.26 502.492 305.721 502.013 306.094 501.586C306.473 501.16 306.76 500.743 306.955 500.335C307.151 499.92 307.248 499.474 307.248 498.994C307.248 498.461 307.127 498.003 306.884 497.618C306.642 497.227 306.31 496.929 305.89 496.721C305.47 496.508 304.993 496.402 304.461 496.402C303.904 496.402 303.419 496.514 303.005 496.739C302.591 496.964 302.271 497.287 302.046 497.707C301.821 498.127 301.709 498.627 301.709 499.207H298.06C298.06 498.018 298.329 496.985 298.868 496.109C299.406 495.233 300.161 494.555 301.132 494.076C302.102 493.596 303.221 493.357 304.487 493.357C305.79 493.357 306.923 493.588 307.888 494.049C308.858 494.505 309.613 495.138 310.151 495.949C310.69 496.76 310.959 497.689 310.959 498.737C310.959 499.423 310.823 500.101 310.551 500.77C310.285 501.439 309.808 502.181 309.122 502.998C308.435 503.809 307.467 504.782 306.219 505.919L303.564 508.52V508.644H311.199V511.787H298.237ZM320.394 502.696C320.394 504.904 320.098 506.934 319.507 508.786C318.921 510.639 318.021 512.355 316.808 513.936H313.194C313.656 513.35 314.085 512.633 314.482 511.787C314.878 510.941 315.224 510.017 315.52 509.017C315.816 508.011 316.047 506.969 316.213 505.892C316.379 504.815 316.461 503.75 316.461 502.696C316.461 501.294 316.316 499.879 316.026 498.453C315.742 497.02 315.352 495.695 314.855 494.475C314.363 493.25 313.81 492.247 313.194 491.466H316.808C318.021 493.046 318.921 494.762 319.507 496.615C320.098 498.467 320.394 500.494 320.394 502.696Z" fill="black"/>
<rect x="877.718" y="454.787" width="221.701" height="95.4041" rx="10" fill="#D9D9D9" fill-opacity="0.7"/>
<path d="M913.97 504.187V506.812H934.945V504.187H913.97ZM922.72 505.512V514.012H926.02V505.512H922.72ZM916.37 491.737V501.987H932.47V491.737H929.17V494.362H919.67V491.737H916.37ZM919.67 496.962H929.17V499.337H919.67V496.962ZM948.793 494.237V496.887H954.493V494.237H948.793ZM953.018 490.862V502.612H956.343V490.862H953.018ZM941.043 503.587V506.137H953.043V507.412H941.093V512.712H944.368V509.812H956.343V503.587H941.043ZM941.093 511.187V513.762H956.993V511.187H941.093ZM942.268 491.612V493.262C942.268 496.212 940.643 499.037 936.793 500.187L938.493 502.812C942.918 501.412 944.968 497.637 944.968 493.262V491.612H942.268ZM942.918 491.612V493.262C942.918 497.412 944.893 500.987 949.118 502.362L950.818 499.787C947.168 498.687 945.618 496.012 945.618 493.262V491.612H942.918ZM970.441 494.087V496.737H977.241V494.087H970.441ZM970.441 499.712V502.362H977.241V499.712H970.441ZM976.016 490.887V507.812H979.341V490.887H976.016ZM964.066 510.962V513.612H979.866V510.962H964.066ZM964.066 506.137V512.337H967.391V506.137H964.066ZM966.366 492.237C962.916 492.237 960.241 494.737 960.241 498.237C960.241 501.687 962.916 504.212 966.366 504.212C969.791 504.212 972.466 501.687 972.466 498.237C972.466 494.737 969.791 492.237 966.366 492.237ZM966.366 495.162C968.041 495.162 969.316 496.312 969.316 498.237C969.316 500.162 968.041 501.312 966.366 501.312C964.666 501.312 963.416 500.162 963.416 498.237C963.416 496.312 964.666 495.162 966.366 495.162ZM985.364 492.212V494.837H999.889V492.212H985.364ZM982.989 502.062V504.737H1003.91V502.062H982.989ZM991.664 503.937V514.037H995.014V503.937H991.664ZM998.189 492.212V494.262C998.189 496.662 998.189 499.412 997.289 503.287L1000.56 503.662C1001.46 499.562 1001.46 496.762 1001.46 494.262V492.212H998.189ZM1005.99 508.587V511.312H1026.94V508.587H1005.99ZM1014.69 503.437V509.312H1017.99V503.437H1014.69ZM1014.56 492.137V493.812C1014.56 497.012 1011.74 500.562 1006.46 501.412L1007.84 504.187C1013.89 503.087 1017.46 498.737 1017.46 493.812V492.137H1014.56ZM1015.21 492.137V493.812C1015.21 498.812 1018.79 503.062 1024.86 504.187L1026.24 501.412C1020.94 500.562 1018.11 497.087 1018.11 493.812V492.137H1015.21ZM1030.3 502.696C1030.3 500.494 1030.6 498.467 1031.18 496.615C1031.77 494.762 1032.68 493.046 1033.89 491.466H1037.5C1037.04 492.052 1036.61 492.768 1036.22 493.614C1035.82 494.455 1035.47 495.378 1035.18 496.384C1034.88 497.39 1034.65 498.432 1034.49 499.509C1034.32 500.58 1034.24 501.643 1034.24 502.696C1034.24 504.099 1034.38 505.516 1034.66 506.949C1034.95 508.375 1035.34 509.701 1035.84 510.926C1036.33 512.151 1036.89 513.154 1037.5 513.936H1033.89C1032.68 512.355 1031.77 510.639 1031.18 508.786C1030.6 506.934 1030.3 504.904 1030.3 502.696ZM1039.66 511.787V509.017L1046.14 503.025C1046.69 502.492 1047.15 502.013 1047.52 501.586C1047.9 501.16 1048.19 500.743 1048.38 500.335C1048.58 499.92 1048.67 499.474 1048.67 498.994C1048.67 498.461 1048.55 498.003 1048.31 497.618C1048.07 497.227 1047.74 496.929 1047.32 496.721C1046.9 496.508 1046.42 496.402 1045.89 496.402C1045.33 496.402 1044.85 496.514 1044.43 496.739C1044.02 496.964 1043.7 497.287 1043.47 497.707C1043.25 498.127 1043.13 498.627 1043.13 499.207H1039.49C1039.49 498.018 1039.76 496.985 1040.29 496.109C1040.83 495.233 1041.59 494.555 1042.56 494.076C1043.53 493.596 1044.65 493.357 1045.91 493.357C1047.22 493.357 1048.35 493.588 1049.31 494.049C1050.28 494.505 1051.04 495.138 1051.58 495.949C1052.12 496.76 1052.39 497.689 1052.39 498.737C1052.39 499.423 1052.25 500.101 1051.98 500.77C1051.71 501.439 1051.23 502.181 1050.55 502.998C1049.86 503.809 1048.89 504.782 1047.64 505.919L1044.99 508.52V508.644H1052.63V511.787H1039.66ZM1061.82 502.696C1061.82 504.904 1061.52 506.934 1060.93 508.786C1060.35 510.639 1059.45 512.355 1058.23 513.936H1054.62C1055.08 513.35 1055.51 512.633 1055.91 511.787C1056.3 510.941 1056.65 510.017 1056.95 509.017C1057.24 508.011 1057.47 506.969 1057.64 505.892C1057.8 504.815 1057.89 503.75 1057.89 502.696C1057.89 501.294 1057.74 499.879 1057.45 498.453C1057.17 497.02 1056.78 495.695 1056.28 494.475C1055.79 493.25 1055.24 492.247 1054.62 491.466H1058.23C1059.45 493.046 1060.35 494.762 1060.93 496.615C1061.52 498.467 1061.82 500.494 1061.82 502.696Z" fill="black"/>
<rect y="645.596" width="221.701" height="95.4041" rx="10" fill="#92A3C5"/>
<path d="M49.1602 685.321V687.971H54.5852V685.321H49.1602ZM48.9852 690.121V692.771H54.4102V690.121H48.9852ZM54.0602 681.671V694.996H57.3852V681.671H54.0602ZM46.5102 683.246V684.846C46.5102 688.471 44.0602 691.371 38.1852 692.896L39.4852 695.521C46.5102 693.596 50.0602 689.546 50.0602 683.246H46.5102ZM39.4602 683.246V685.896H48.8352V683.246H39.4602ZM49.7102 695.296C45.0102 695.296 41.8852 697.096 41.8852 699.996C41.8852 702.896 45.0102 704.721 49.7102 704.721C54.4102 704.721 57.5352 702.896 57.5352 699.996C57.5352 697.096 54.4102 695.296 49.7102 695.296ZM49.7102 697.846C52.5602 697.846 54.2602 698.571 54.2602 699.996C54.2602 701.421 52.5602 702.121 49.7102 702.121C46.8852 702.121 45.1852 701.421 45.1852 699.996C45.1852 698.571 46.8852 697.846 49.7102 697.846ZM71.2582 684.696V687.346H78.1082V684.696H71.2582ZM71.2582 689.821V692.496H78.1082V689.821H71.2582ZM67.4082 682.896C63.9332 682.896 61.2832 685.296 61.2832 688.571C61.2832 691.846 63.9332 694.246 67.4082 694.246C70.8582 694.246 73.5082 691.846 73.5082 688.571C73.5082 685.296 70.8582 682.896 67.4082 682.896ZM67.4082 685.721C69.1082 685.721 70.3582 686.746 70.3582 688.571C70.3582 690.371 69.1082 691.446 67.4082 691.446C65.7082 691.446 64.4582 690.371 64.4582 688.571C64.4582 686.746 65.7082 685.721 67.4082 685.721ZM77.0582 681.671V695.221H80.3832V681.671H77.0582ZM72.5332 695.696C67.6582 695.696 64.6082 697.396 64.6082 700.271C64.6082 703.146 67.6582 704.821 72.5332 704.821C77.4082 704.821 80.4582 703.146 80.4582 700.271C80.4582 697.396 77.4082 695.696 72.5332 695.696ZM72.5332 698.271C75.5832 698.271 77.1832 698.921 77.1832 700.271C77.1832 701.621 75.5832 702.271 72.5332 702.271C69.5082 702.271 67.8832 701.621 67.8832 700.271C67.8832 698.921 69.5082 698.271 72.5332 698.271ZM85.0313 683.346V686.021H94.9313V683.346H85.0313ZM87.8813 688.746V694.546H91.1813V688.746H87.8813ZM93.6313 683.346V684.796C93.6313 686.396 93.6313 688.396 93.1313 691.246L96.3563 691.596C96.9063 688.721 96.9063 686.421 96.9063 684.796V683.346H93.6313ZM99.1563 681.671V698.996H102.506V681.671H99.1563ZM101.181 688.721V691.446H105.256V688.721H101.181ZM87.0563 701.771V704.421H103.231V701.771H87.0563ZM87.0563 697.446V702.596H90.3813V697.446H87.0563ZM83.9813 695.896C87.9563 695.896 93.3313 695.796 98.1063 694.896L97.9063 692.546C93.2563 693.196 87.6813 693.271 83.6813 693.271L83.9813 695.896ZM122.954 681.646V704.871H126.279V681.646H122.954ZM108.254 696.771V699.471H110.304C114.529 699.471 117.929 699.346 121.679 698.671L121.354 695.996C117.679 696.621 114.404 696.771 110.304 696.771H108.254ZM108.229 683.621V686.271H115.754V689.946H108.254V697.771H111.629V692.571H119.154V683.621H108.229ZM131.277 691.771V694.371H133.252C138.127 694.371 141.052 694.321 144.302 693.771L143.977 691.196C140.802 691.721 138.027 691.771 133.252 691.771H131.277ZM131.277 682.996V692.846H134.577V685.621H142.402V682.996H131.277ZM133.552 687.371V689.946H141.727V687.371H133.552ZM145.902 681.696V695.421H149.252V681.696H145.902ZM133.852 696.371V704.571H149.252V696.371H133.852ZM145.977 698.971V701.946H137.102V698.971H145.977ZM154.344 693.505C154.344 691.303 154.637 689.276 155.223 687.423C155.815 685.571 156.717 683.855 157.931 682.274H161.544C161.082 682.86 160.653 683.576 160.257 684.423C159.86 685.263 159.514 686.186 159.218 687.193C158.922 688.199 158.691 689.24 158.526 690.318C158.36 691.389 158.277 692.451 158.277 693.505C158.277 694.907 158.419 696.325 158.703 697.757C158.993 699.184 159.384 700.509 159.875 701.735C160.372 702.96 160.929 703.963 161.544 704.744H157.931C156.717 703.164 155.815 701.448 155.223 699.595C154.637 697.742 154.344 695.712 154.344 693.505ZM171.614 684.414V702.596H167.77V688.063H167.663L163.499 690.673V687.264L168 684.414H171.614ZM182.345 693.505C182.345 695.712 182.049 697.742 181.457 699.595C180.871 701.448 179.972 703.164 178.758 704.744H175.145C175.607 704.158 176.036 703.442 176.432 702.596C176.829 701.749 177.175 700.826 177.471 699.826C177.767 698.82 177.998 697.778 178.163 696.701C178.329 695.624 178.412 694.558 178.412 693.505C178.412 692.102 178.267 690.688 177.977 689.261C177.693 687.829 177.302 686.503 176.805 685.284C176.314 684.059 175.76 683.056 175.145 682.274H178.758C179.972 683.855 180.871 685.571 181.457 687.423C182.049 689.276 182.345 691.303 182.345 693.505Z" fill="black"/>
<rect x="988.568" y="645.596" width="221.701" height="95.4041" rx="10" fill="#92A3C5"/>
<path d="M1037.28 688.446H1032.55V684.971H1037.28V688.446ZM1029.28 688.446H1026.5V691.071H1043.3V688.446H1040.55V684.971H1043.48V682.346H1026.35V684.971H1029.28V688.446ZM1039.6 701.896H1030.18V699.571H1039.6V701.896ZM1045.33 695.121V692.496H1024.53V695.121H1033.28V696.996H1026.95V704.471H1042.85V696.996H1036.58V695.121H1045.33ZM1066.63 681.721H1063.33V693.521H1066.63V681.721ZM1061.88 690.771C1058.43 689.846 1056.75 687.621 1056.5 685.396H1061.03V682.771H1048.5V685.396H1053.1C1052.88 687.821 1051.18 690.221 1047.63 691.221L1049.15 693.796C1051.93 693.021 1053.83 691.296 1054.88 689.121C1055.93 691.071 1057.73 692.596 1060.38 693.296L1061.88 690.771ZM1054.6 702.071V700.621H1066.65V694.446H1051.3V696.921H1063.38V698.296H1051.33V704.571H1067.23V702.071H1054.6ZM1076 689.321H1085.85V692.546H1076V689.321ZM1082.58 699.396V695.171H1089.1V683.146H1085.85V686.721H1076V683.146H1072.73V695.171H1079.28V699.396H1070.53V702.071H1091.38V699.396H1082.58ZM1095.52 691.471C1099.87 691.071 1102.7 689.471 1103.92 687.271C1105.12 689.471 1107.97 691.071 1112.3 691.471L1113.45 688.896C1109.07 688.521 1106.82 686.996 1106.3 685.421H1112.45V682.796H1095.42V685.421H1101.55C1101.02 686.996 1098.77 688.521 1094.42 688.896L1095.52 691.471ZM1103.87 702.221C1100.8 702.221 1099.22 701.671 1099.22 700.471C1099.22 699.271 1100.8 698.746 1103.87 698.746C1106.95 698.746 1108.52 699.271 1108.52 700.471C1108.52 701.671 1106.95 702.221 1103.87 702.221ZM1103.87 696.196C1098.9 696.196 1095.9 697.771 1095.9 700.471C1095.9 703.196 1098.9 704.746 1103.87 704.746C1108.85 704.746 1111.87 703.196 1111.87 700.471C1111.87 697.771 1108.85 696.196 1103.87 696.196ZM1093.52 692.346V694.946H1114.32V692.346H1093.52ZM1130.42 691.221C1127.55 691.646 1125.02 691.746 1121.05 691.771V689.946H1128.17V687.396H1121.05V685.646H1128.85V683.046H1117.77V694.371H1119.75C1124.6 694.371 1127.47 694.296 1130.72 693.771L1130.42 691.221ZM1123.57 698.921H1132.42V701.896H1123.57V698.921ZM1120.32 704.471H1135.65V696.346H1120.32V704.471ZM1132.32 681.746V695.396H1135.65V681.746H1132.32ZM1140.79 693.505C1140.79 691.303 1141.08 689.276 1141.67 687.423C1142.26 685.571 1143.16 683.855 1144.37 682.274H1147.99C1147.53 682.86 1147.1 683.576 1146.7 684.423C1146.3 685.263 1145.96 686.186 1145.66 687.193C1145.37 688.199 1145.14 689.24 1144.97 690.318C1144.8 691.389 1144.72 692.451 1144.72 693.505C1144.72 694.907 1144.86 696.325 1145.15 697.757C1145.44 699.184 1145.83 700.509 1146.32 701.735C1146.82 702.96 1147.37 703.963 1147.99 704.744H1144.37C1143.16 703.164 1142.26 701.448 1141.67 699.595C1141.08 697.742 1140.79 695.712 1140.79 693.505ZM1156.87 702.844C1155.54 702.844 1154.36 702.616 1153.33 702.161C1152.3 701.699 1151.48 701.066 1150.88 700.261C1150.29 699.45 1149.99 698.515 1149.97 697.455H1153.84C1153.86 697.899 1154.01 698.29 1154.28 698.627C1154.55 698.959 1154.91 699.216 1155.36 699.4C1155.81 699.583 1156.31 699.675 1156.88 699.675C1157.46 699.675 1157.98 699.571 1158.43 699.364C1158.88 699.157 1159.23 698.87 1159.49 698.503C1159.74 698.136 1159.87 697.713 1159.87 697.233C1159.87 696.748 1159.73 696.319 1159.46 695.946C1159.19 695.567 1158.81 695.271 1158.31 695.058C1157.81 694.845 1157.22 694.739 1156.53 694.739H1154.84V691.916H1156.53C1157.11 691.916 1157.62 691.815 1158.07 691.614C1158.52 691.413 1158.87 691.134 1159.11 690.779C1159.36 690.418 1159.49 689.998 1159.49 689.519C1159.49 689.063 1159.38 688.663 1159.16 688.32C1158.95 687.971 1158.64 687.699 1158.25 687.503C1157.87 687.308 1157.42 687.21 1156.9 687.21C1156.38 687.21 1155.91 687.305 1155.47 687.494C1155.04 687.678 1154.7 687.941 1154.44 688.285C1154.18 688.628 1154.04 689.03 1154.02 689.492H1150.33C1150.35 688.444 1150.65 687.521 1151.23 686.722C1151.81 685.923 1152.59 685.299 1153.57 684.849C1154.56 684.393 1155.68 684.165 1156.92 684.165C1158.18 684.165 1159.27 684.393 1160.22 684.849C1161.16 685.305 1161.89 685.92 1162.41 686.695C1162.93 687.465 1163.2 688.329 1163.19 689.288C1163.2 690.306 1162.88 691.155 1162.24 691.836C1161.61 692.516 1160.78 692.948 1159.76 693.132V693.274C1161.1 693.446 1162.12 693.91 1162.82 694.668C1163.52 695.419 1163.87 696.36 1163.86 697.491C1163.87 698.527 1163.57 699.447 1162.97 700.252C1162.37 701.057 1161.54 701.69 1160.49 702.152C1159.44 702.613 1158.23 702.844 1156.87 702.844ZM1173.04 693.505C1173.04 695.712 1172.74 697.742 1172.15 699.595C1171.56 701.448 1170.66 703.164 1169.45 704.744H1165.84C1166.3 704.158 1166.73 703.442 1167.12 702.596C1167.52 701.749 1167.87 700.826 1168.16 699.826C1168.46 698.82 1168.69 697.778 1168.86 696.701C1169.02 695.624 1169.1 694.558 1169.1 693.505C1169.1 692.102 1168.96 690.688 1168.67 689.261C1168.39 687.829 1167.99 686.503 1167.5 685.284C1167.01 684.059 1166.45 683.056 1165.84 682.274H1169.45C1170.66 683.855 1171.56 685.571 1172.15 687.423C1172.74 689.276 1173.04 691.303 1173.04 693.505Z" fill="black"/>
<rect x="741.426" y="645.596" width="221.701" height="95.4041" rx="10" fill="#92A3C5"/>
<path d="M790.484 683.071V685.746C790.484 688.346 789.209 691.196 785.984 692.621L787.734 695.196C791.509 693.596 793.084 689.671 793.084 685.746V683.071H790.484ZM791.084 683.071V685.746C791.084 689.521 792.609 693.021 796.209 694.446L797.984 691.921C794.934 690.721 793.684 688.221 793.684 685.746V683.071H791.084ZM802.884 681.696V695.821H806.034V681.696H802.884ZM800.109 687.296V689.971H803.784V687.296H800.109ZM797.984 682.121V695.096H801.084V682.121H797.984ZM798.184 696.146C793.309 696.146 790.234 697.771 790.234 700.496C790.234 703.196 793.309 704.821 798.184 704.821C803.034 704.821 806.159 703.196 806.159 700.496C806.159 697.771 803.034 696.146 798.184 696.146ZM798.184 698.646C801.159 698.646 802.809 699.271 802.809 700.496C802.809 701.721 801.159 702.321 798.184 702.321C795.209 702.321 793.534 701.721 793.534 700.496C793.534 699.271 795.209 698.646 798.184 698.646ZM814.507 683.096V685.596C814.507 688.721 812.882 691.821 808.957 693.071L810.732 695.671C815.157 694.146 817.232 690.196 817.232 685.596V683.096H814.507ZM815.157 683.096V685.621C815.157 689.971 817.157 693.796 821.457 695.221L823.157 692.646C819.432 691.421 817.857 688.521 817.857 685.621V683.096H815.157ZM824.207 681.671V698.596H827.532V681.671H824.207ZM826.582 688.371V691.121H830.607V688.371H826.582ZM812.607 701.771V704.421H828.357V701.771H812.607ZM812.607 696.996V703.171H815.957V696.996H812.607ZM832.779 702.596V699.826L839.251 693.833C839.801 693.301 840.263 692.821 840.635 692.395C841.014 691.969 841.301 691.552 841.497 691.143C841.692 690.729 841.79 690.282 841.79 689.803C841.79 689.27 841.668 688.811 841.426 688.427C841.183 688.036 840.851 687.737 840.431 687.53C840.011 687.317 839.535 687.21 839.002 687.21C838.446 687.21 837.96 687.323 837.546 687.548C837.132 687.773 836.812 688.095 836.587 688.515C836.362 688.936 836.25 689.436 836.25 690.016H832.601C832.601 688.826 832.87 687.793 833.409 686.917C833.947 686.041 834.702 685.364 835.673 684.884C836.643 684.405 837.762 684.165 839.029 684.165C840.331 684.165 841.464 684.396 842.429 684.858C843.399 685.314 844.154 685.947 844.693 686.758C845.231 687.568 845.501 688.498 845.501 689.545C845.501 690.232 845.364 690.91 845.092 691.578C844.826 692.247 844.349 692.99 843.663 693.807C842.976 694.617 842.009 695.591 840.76 696.727L838.105 699.329V699.453H845.74V702.596H832.779ZM849.327 691.771V694.371H851.302C856.177 694.371 859.102 694.321 862.352 693.771L862.027 691.196C858.852 691.721 856.077 691.771 851.302 691.771H849.327ZM849.327 682.996V692.846H852.627V685.621H860.452V682.996H849.327ZM851.602 687.371V689.946H859.777V687.371H851.602ZM863.952 681.696V695.421H867.302V681.696H863.952ZM851.902 696.371V704.571H867.302V696.371H851.902ZM864.027 698.971V701.946H855.152V698.971H864.027ZM872.394 693.505C872.394 691.303 872.687 689.276 873.273 687.423C873.864 685.571 874.767 683.855 875.98 682.274H879.594C879.132 682.86 878.703 683.576 878.306 684.423C877.91 685.263 877.564 686.186 877.268 687.193C876.972 688.199 876.741 689.24 876.575 690.318C876.409 691.389 876.327 692.451 876.327 693.505C876.327 694.907 876.469 696.325 876.753 697.757C877.043 699.184 877.433 700.509 877.925 701.735C878.422 702.96 878.978 703.963 879.594 704.744H875.98C874.767 703.164 873.864 701.448 873.273 699.595C872.687 697.742 872.394 695.712 872.394 693.505ZM889.663 684.414V702.596H885.819V688.063H885.713L881.549 690.673V687.264L886.05 684.414H889.663ZM900.963 702.844C900.027 702.838 899.125 702.682 898.255 702.374C897.391 702.066 896.615 701.566 895.929 700.873C895.242 700.181 894.698 699.264 894.295 698.121C893.899 696.979 893.701 695.576 893.701 693.913C893.706 692.386 893.881 691.022 894.224 689.82C894.574 688.613 895.071 687.589 895.716 686.749C896.367 685.908 897.145 685.269 898.051 684.831C898.956 684.387 899.971 684.165 901.096 684.165C902.309 684.165 903.38 684.402 904.31 684.876C905.239 685.343 905.984 685.979 906.547 686.784C907.115 687.589 907.458 688.492 907.577 689.492H903.786C903.638 688.859 903.327 688.362 902.854 688.001C902.38 687.64 901.794 687.459 901.096 687.459C899.912 687.459 899.012 687.974 898.397 689.004C897.787 690.034 897.477 691.433 897.465 693.203H897.589C897.861 692.664 898.228 692.206 898.69 691.827C899.157 691.442 899.687 691.149 900.279 690.948C900.877 690.741 901.507 690.637 902.17 690.637C903.247 690.637 904.206 690.892 905.046 691.401C905.887 691.904 906.55 692.596 907.035 693.478C907.52 694.36 907.763 695.369 907.763 696.506C907.763 697.737 907.476 698.831 906.902 699.79C906.334 700.749 905.538 701.501 904.514 702.045C903.496 702.584 902.312 702.85 900.963 702.844ZM900.945 699.826C901.537 699.826 902.066 699.684 902.534 699.4C903.002 699.116 903.368 698.731 903.635 698.246C903.901 697.76 904.034 697.216 904.034 696.612C904.034 696.008 903.901 695.467 903.635 694.987C903.374 694.508 903.013 694.126 902.552 693.842C902.09 693.558 901.563 693.416 900.971 693.416C900.528 693.416 900.116 693.499 899.737 693.665C899.365 693.83 899.036 694.061 898.752 694.357C898.474 694.653 898.255 694.996 898.095 695.387C897.935 695.772 897.855 696.183 897.855 696.621C897.855 697.207 897.989 697.742 898.255 698.228C898.527 698.713 898.894 699.101 899.356 699.391C899.823 699.681 900.353 699.826 900.945 699.826ZM916.898 693.505C916.898 695.712 916.602 697.742 916.011 699.595C915.425 701.448 914.525 703.164 913.312 704.744H909.698C910.16 704.158 910.589 703.442 910.986 702.596C911.382 701.749 911.728 700.826 912.024 699.826C912.32 698.82 912.551 697.778 912.717 696.701C912.883 695.624 912.965 694.558 912.965 693.505C912.965 692.102 912.82 690.688 912.53 689.261C912.246 687.829 911.856 686.503 911.359 685.284C910.867 684.059 910.314 683.056 909.698 682.274H913.312C914.525 683.855 915.425 685.571 916.011 687.423C916.602 689.276 916.898 691.303 916.898 693.505Z" fill="black"/>
<rect x="494.284" y="645.596" width="221.701" height="95.4041" rx="10" fill="#92A3C5"/>
<path d="M545.295 683.071V685.746C545.295 688.346 544.02 691.196 540.795 692.621L542.545 695.196C546.32 693.596 547.895 689.671 547.895 685.746V683.071H545.295ZM545.895 683.071V685.746C545.895 689.521 547.42 693.021 551.02 694.446L552.795 691.921C549.745 690.721 548.495 688.221 548.495 685.746V683.071H545.895ZM557.695 681.696V695.821H560.845V681.696H557.695ZM554.92 687.296V689.971H558.595V687.296H554.92ZM552.795 682.121V695.096H555.895V682.121H552.795ZM552.995 696.146C548.12 696.146 545.045 697.771 545.045 700.496C545.045 703.196 548.12 704.821 552.995 704.821C557.845 704.821 560.97 703.196 560.97 700.496C560.97 697.771 557.845 696.146 552.995 696.146ZM552.995 698.646C555.97 698.646 557.62 699.271 557.62 700.496C557.62 701.721 555.97 702.321 552.995 702.321C550.02 702.321 548.345 701.721 548.345 700.496C548.345 699.271 550.02 698.646 552.995 698.646ZM569.318 683.096V685.596C569.318 688.721 567.693 691.821 563.768 693.071L565.543 695.671C569.968 694.146 572.043 690.196 572.043 685.596V683.096H569.318ZM569.968 683.096V685.621C569.968 689.971 571.968 693.796 576.268 695.221L577.968 692.646C574.243 691.421 572.668 688.521 572.668 685.621V683.096H569.968ZM579.018 681.671V698.596H582.343V681.671H579.018ZM581.393 688.371V691.121H585.418V688.371H581.393ZM567.418 701.771V704.421H583.168V701.771H567.418ZM567.418 696.996V703.171H570.768V696.996H567.418ZM595.5 684.414V702.596H591.656V688.063H591.549L587.386 690.673V687.264L591.887 684.414H595.5ZM600.623 691.771V694.371H602.598C607.473 694.371 610.398 694.321 613.648 693.771L613.323 691.196C610.148 691.721 607.373 691.771 602.598 691.771H600.623ZM600.623 682.996V692.846H603.923V685.621H611.748V682.996H600.623ZM602.898 687.371V689.946H611.073V687.371H602.898ZM615.248 681.696V695.421H618.598V681.696H615.248ZM603.198 696.371V704.571H618.598V696.371H603.198ZM615.323 698.971V701.946H606.448V698.971H615.323ZM623.689 693.505C623.689 691.303 623.982 689.276 624.568 687.423C625.16 685.571 626.063 683.855 627.276 682.274H630.889C630.428 682.86 629.999 683.576 629.602 684.423C629.205 685.263 628.859 686.186 628.563 687.193C628.267 688.199 628.037 689.24 627.871 690.318C627.705 691.389 627.622 692.451 627.622 693.505C627.622 694.907 627.764 696.325 628.048 697.757C628.338 699.184 628.729 700.509 629.22 701.735C629.717 702.96 630.274 703.963 630.889 704.744H627.276C626.063 703.164 625.16 701.448 624.568 699.595C623.982 697.742 623.689 695.712 623.689 693.505ZM640.959 684.414V702.596H637.115V688.063H637.008L632.845 690.673V687.264L637.346 684.414H640.959ZM651.921 702.844C650.666 702.844 649.548 702.613 648.565 702.152C647.589 701.69 646.813 701.054 646.239 700.243C645.665 699.432 645.366 698.503 645.342 697.455H649.071C649.113 698.16 649.408 698.731 649.959 699.169C650.509 699.607 651.163 699.826 651.921 699.826C652.525 699.826 653.057 699.693 653.519 699.426C653.986 699.154 654.35 698.778 654.611 698.299C654.877 697.814 655.01 697.257 655.01 696.63C655.01 695.991 654.874 695.428 654.602 694.943C654.336 694.458 653.966 694.079 653.492 693.807C653.019 693.534 652.477 693.395 651.868 693.389C651.335 693.389 650.817 693.499 650.314 693.718C649.817 693.937 649.429 694.236 649.151 694.615L645.733 694.002L646.594 684.414H657.709V687.557H649.764L649.293 692.111H649.4C649.719 691.661 650.202 691.288 650.847 690.992C651.492 690.696 652.214 690.548 653.013 690.548C654.108 690.548 655.084 690.806 655.943 691.321C656.801 691.836 657.478 692.543 657.976 693.443C658.473 694.336 658.718 695.366 658.712 696.532C658.718 697.757 658.434 698.846 657.86 699.799C657.292 700.746 656.496 701.492 655.472 702.036C654.454 702.575 653.27 702.844 651.921 702.844ZM667.803 693.505C667.803 695.712 667.507 697.742 666.916 699.595C666.33 701.448 665.43 703.164 664.217 704.744H660.603C661.065 704.158 661.494 703.442 661.891 702.596C662.287 701.749 662.633 700.826 662.929 699.826C663.225 698.82 663.456 697.778 663.622 696.701C663.788 695.624 663.87 694.558 663.87 693.505C663.87 692.102 663.725 690.688 663.435 689.261C663.151 687.829 662.761 686.503 662.264 685.284C661.772 684.059 661.219 683.056 660.603 682.274H664.217C665.43 683.855 666.33 685.571 666.916 687.423C667.507 689.276 667.803 691.303 667.803 693.505Z" fill="black"/>
<rect x="247.142" y="645.596" width="221.701" height="95.4041" rx="10" fill="#92A3C5"/>
<path d="M293.461 684.696V687.346H300.311V684.696H293.461ZM293.461 689.821V692.496H300.311V689.821H293.461ZM289.611 682.896C286.136 682.896 283.486 685.296 283.486 688.571C283.486 691.846 286.136 694.246 289.611 694.246C293.061 694.246 295.711 691.846 295.711 688.571C295.711 685.296 293.061 682.896 289.611 682.896ZM289.611 685.721C291.311 685.721 292.561 686.746 292.561 688.571C292.561 690.371 291.311 691.446 289.611 691.446C287.911 691.446 286.661 690.371 286.661 688.571C286.661 686.746 287.911 685.721 289.611 685.721ZM299.261 681.671V695.221H302.586V681.671H299.261ZM294.736 695.696C289.861 695.696 286.811 697.396 286.811 700.271C286.811 703.146 289.861 704.821 294.736 704.821C299.611 704.821 302.661 703.146 302.661 700.271C302.661 697.396 299.611 695.696 294.736 695.696ZM294.736 698.271C297.786 698.271 299.386 698.921 299.386 700.271C299.386 701.621 297.786 702.271 294.736 702.271C291.711 702.271 290.086 701.621 290.086 700.271C290.086 698.921 291.711 698.271 294.736 698.271ZM317.909 686.771V689.446H323.709V686.771H317.909ZM312.609 682.621C309.109 682.621 306.484 684.946 306.484 688.146C306.484 691.371 309.109 693.671 312.609 693.671C316.084 693.671 318.709 691.371 318.709 688.146C318.709 684.946 316.084 682.621 312.609 682.621ZM312.609 685.396C314.309 685.396 315.534 686.421 315.534 688.146C315.534 689.871 314.309 690.921 312.609 690.921C310.909 690.921 309.659 689.871 309.659 688.146C309.659 686.421 310.909 685.396 312.609 685.396ZM322.259 681.671V694.121H325.584V681.671H322.259ZM310.209 695.121V704.571H325.584V695.121H322.284V697.321H313.509V695.121H310.209ZM313.509 699.871H322.284V701.921H313.509V699.871ZM330.232 683.346V686.021H340.132V683.346H330.232ZM333.082 688.746V694.546H336.382V688.746H333.082ZM338.832 683.346V684.796C338.832 686.396 338.832 688.396 338.332 691.246L341.557 691.596C342.107 688.721 342.107 686.421 342.107 684.796V683.346H338.832ZM344.357 681.671V698.996H347.707V681.671H344.357ZM346.382 688.721V691.446H350.457V688.721H346.382ZM332.257 701.771V704.421H348.432V701.771H332.257ZM332.257 697.446V702.596H335.582V697.446H332.257ZM329.182 695.896C333.157 695.896 338.532 695.796 343.307 694.896L343.107 692.546C338.457 693.196 332.882 693.271 328.882 693.271L329.182 695.896ZM368.155 681.646V704.871H371.48V681.646H368.155ZM353.455 696.771V699.471H355.505C359.73 699.471 363.13 699.346 366.88 698.671L366.555 695.996C362.88 696.621 359.605 696.771 355.505 696.771H353.455ZM353.43 683.621V686.271H360.955V689.946H353.455V697.771H356.83V692.571H364.355V683.621H353.43ZM376.478 691.771V694.371H378.453C383.328 694.371 386.253 694.321 389.503 693.771L389.178 691.196C386.003 691.721 383.228 691.771 378.453 691.771H376.478ZM376.478 682.996V692.846H379.778V685.621H387.603V682.996H376.478ZM378.753 687.371V689.946H386.928V687.371H378.753ZM391.103 681.696V695.421H394.453V681.696H391.103ZM379.053 696.371V704.571H394.453V696.371H379.053ZM391.178 698.971V701.946H382.303V698.971H391.178ZM399.545 693.505C399.545 691.303 399.838 689.276 400.424 687.423C401.016 685.571 401.919 683.855 403.132 682.274H406.745C406.283 682.86 405.854 683.576 405.458 684.423C405.061 685.263 404.715 686.186 404.419 687.193C404.123 688.199 403.892 689.24 403.727 690.318C403.561 691.389 403.478 692.451 403.478 693.505C403.478 694.907 403.62 696.325 403.904 697.757C404.194 699.184 404.585 700.509 405.076 701.735C405.573 702.96 406.13 703.963 406.745 704.744H403.132C401.919 703.164 401.016 701.448 400.424 699.595C399.838 697.742 399.545 695.712 399.545 693.505ZM415.545 702.844C414.291 702.844 413.172 702.613 412.189 702.152C411.213 701.69 410.438 701.054 409.863 700.243C409.289 699.432 408.99 698.503 408.967 697.455H412.695C412.737 698.16 413.033 698.731 413.583 699.169C414.134 699.607 414.788 699.826 415.545 699.826C416.149 699.826 416.682 699.693 417.143 699.426C417.611 699.154 417.975 698.778 418.235 698.299C418.502 697.814 418.635 697.257 418.635 696.63C418.635 695.991 418.499 695.428 418.226 694.943C417.96 694.458 417.59 694.079 417.117 693.807C416.643 693.534 416.102 693.395 415.492 693.389C414.959 693.389 414.441 693.499 413.938 693.718C413.441 693.937 413.054 694.236 412.775 694.615L409.357 694.002L410.219 684.414H421.334V687.557H413.388L412.917 692.111H413.024C413.344 691.661 413.826 691.288 414.471 690.992C415.116 690.696 415.838 690.548 416.637 690.548C417.732 690.548 418.709 690.806 419.567 691.321C420.425 691.836 421.103 692.543 421.6 693.443C422.097 694.336 422.343 695.366 422.337 696.532C422.343 697.757 422.059 698.846 421.485 699.799C420.916 700.746 420.12 701.492 419.096 702.036C418.078 702.575 416.895 702.844 415.545 702.844ZM431.428 693.505C431.428 695.712 431.132 697.742 430.54 699.595C429.954 701.448 429.054 703.164 427.841 704.744H424.228C424.689 704.158 425.119 703.442 425.515 702.596C425.912 701.749 426.258 700.826 426.554 699.826C426.85 698.82 427.081 697.778 427.246 696.701C427.412 695.624 427.495 694.558 427.495 693.505C427.495 692.102 427.35 690.688 427.06 689.261C426.776 687.829 426.385 686.503 425.888 685.284C425.397 684.059 424.843 683.056 424.228 682.274H427.841C429.054 683.855 429.954 685.571 430.54 687.423C431.132 689.276 431.428 691.303 431.428 693.505Z" fill="black"/>
<line x1="605.605" y1="288.183" x2="772.488" y2="288.183" stroke="black" stroke-opacity="0.8" stroke-width="3"/>
<line x1="358.955" y1="502.296" x2="878.495" y2="502.296" stroke="black" stroke-opacity="0.8" stroke-width="3"/>
<line x1="108.106" y1="598.857" x2="1099.96" y2="598.857" stroke="black" stroke-opacity="0.8" stroke-width="3"/>
<line x1="1098.46" y1="645.489" x2="1098.46" y2="600.357" stroke="black" stroke-opacity="0.8" stroke-width="3"/>
</svg>
